<svg className = "w-full" width="69" height="69" viewBox="0 0 69 69" fill="none" xmlns="http://www.w3.org/2000/svg">
<path fill-rule="evenodd" clip-rule="evenodd" d="M34.5 0C29.3213 0 24.4075 1.14143 19.998 3.18698C15.774 5.14651 12.0135 7.93527 8.92531 11.3439C5.50354 15.1208 2.90634 19.6598 1.41884 24.6765C0.495497 27.7906 0 31.0879 0 34.5C0 40.9527 1.77205 46.9933 4.8564 52.1597C10.8768 62.2442 21.8991 69 34.5 69C47.7241 69 59.2094 61.5596 64.9998 50.6394C67.5581 45.8146 69 39.7448 69 33.925C69 30.1905 68.4064 26.6151 67.3076 23.2801C65.8145 18.7487 63.3897 14.6639 60.2576 11.2277C55.0409 5.50436 47.8626 1.5803 39.759 0.384105C38.0439 0.130938 36.2876 0 34.5 0ZM24.9475 6.16725C23.4528 5.35971 22.2318 4.56519 21.3189 3.85592C25.3613 2.11476 29.8173 1.15 34.5 1.15C35.0903 1.15 35.6769 1.16474 36.2596 1.19388C31.7897 2.43856 28.0601 4.14514 24.9475 6.16725ZM26.1287 6.7789C29.1148 4.92121 32.6772 3.35159 36.9319 2.20188C35.0907 3.75785 33.0632 5.99057 31.0821 8.87517C29.2376 8.21437 27.5784 7.49868 26.1287 6.7789ZM25.0143 7.50334C26.5795 8.31304 28.3939 9.11991 30.4242 9.86014C29.4092 11.4226 28.4133 13.1577 27.4687 15.0622C26.7055 15.4454 26.0885 16.0399 25.665 16.5278C25.5951 16.6083 25.5298 16.6867 25.4691 16.762C24.7304 15.5924 23.9004 14.828 23.0294 14.3723C21.972 13.819 20.9085 13.7489 19.9793 13.8931C19.0568 14.0362 18.2579 14.3912 17.697 14.7024C17.5754 14.7698 17.4641 14.8358 17.3641 14.8978C19.3074 12.2131 21.8017 9.68478 25.0143 7.50334ZM31.5413 10.253C30.6629 11.5872 29.7941 13.0596 28.9577 14.6694C29.0998 14.6655 29.2447 14.6713 29.3923 14.688C29.9484 14.7511 30.5102 14.9663 31.0652 15.362C31.1142 14.6677 31.2882 13.9718 31.6735 13.3965C32.2326 12.5617 33.6509 11.7373 35.1261 12.4749C35.2603 12.5419 35.3918 12.6496 35.4567 12.814C35.5243 12.9852 35.4951 13.1553 35.4272 13.2906C35.303 13.5377 35.0294 13.7232 34.7287 13.8492C34.1427 14.0947 33.233 14.209 32.127 13.9802C31.9315 14.3449 31.8182 14.7741 31.7691 15.2331C31.8592 15.189 31.9523 15.1476 32.0463 15.1092C32.4021 14.9635 32.8083 14.8443 33.1943 14.773C33.5734 14.7029 33.9637 14.6732 34.2755 14.7296C34.4311 14.7577 34.5989 14.8127 34.7341 14.9239C34.8827 15.0462 34.9719 15.2211 34.9719 15.4285C34.9719 15.6242 34.9308 15.8064 34.8379 15.9653C34.7444 16.1252 34.6111 16.2398 34.4612 16.3188C34.1757 16.4692 33.8158 16.4976 33.4775 16.4883C33.1296 16.4787 32.7465 16.4262 32.3846 16.372C32.3171 16.3619 32.2504 16.3517 32.1847 16.3417C32.0375 16.3192 31.8948 16.2975 31.758 16.2786C31.8038 16.8966 31.9314 17.4932 32.081 17.9702L31.4227 18.1768C31.2769 17.7121 31.1501 17.1447 31.089 16.5454C30.0829 16.9997 29.4994 17.7537 29.1617 18.4166C29.048 18.6399 28.9633 18.8508 28.901 19.0328C30.103 19.1874 30.9219 19.6116 31.4498 20.2016C32.0687 20.8933 32.2 21.716 32.2 22.31C32.2 22.9897 32.0609 23.6367 31.6999 24.1971C32.7675 24.5032 33.8654 24.7825 34.9925 25.0307L37.238 11.8412C36.225 11.6168 35.2443 11.3698 34.2981 11.1049C33.3439 10.8378 32.4241 10.5522 31.5413 10.253ZM27.6053 19.4718C27.6053 19.4721 27.6053 19.4723 28.175 19.55L27.6053 19.4723L27.5196 20.1002L28.1529 20.1246C29.5486 20.1783 30.2404 20.5746 30.5927 20.9684C30.9513 21.3692 31.05 21.869 31.05 22.31C31.05 23.0661 30.8355 23.6212 30.305 24.0358C29.6753 24.5279 28.5099 24.8959 26.4336 24.9552C25.1596 24.9916 24.2442 25.305 23.5931 25.7201C23.8871 24.7619 24.5077 23.5201 25.8135 22.2645L27.3336 20.8029L25.282 21.2906C24.9143 21.378 24.5063 21.4305 24.0857 21.4569C23.3035 21.5061 22.5092 21.4633 21.9046 21.4067C21.6038 21.3785 21.3532 21.3473 21.1788 21.3232C21.0916 21.3112 21.0236 21.301 20.978 21.2939C20.9552 21.2903 20.9381 21.2876 20.9269 21.2857L20.9148 21.2837L20.9122 21.2833L20.5882 21.2279L20.3761 21.4786C19.7927 22.168 18.9221 22.8526 18.1715 23.3767C17.9082 23.5605 17.6641 23.7215 17.459 23.8525C17.3571 23.5314 17.2293 23.1246 17.0954 22.6877C16.8889 22.0142 16.6723 21.284 16.5121 20.6868C17.8461 20.83 18.9289 20.7953 20.1469 20.53C20.837 20.3797 21.561 20.1575 22.3887 19.8614L23.6866 19.3971L22.4434 18.8015C21.7149 18.4524 21.228 18.1751 20.8409 17.8456C20.463 17.5241 20.1552 17.131 19.8268 16.5184C19.5421 15.9873 19.1541 15.6564 18.7614 15.4542C19.1674 15.272 19.6432 15.109 20.1557 15.0295C20.894 14.9149 21.6992 14.9742 22.4962 15.3912C23.2952 15.8092 24.14 16.6152 24.9045 18.0897L25.3806 19.0079L25.9088 18.1195L25.909 18.1193L25.9092 18.1189L25.9099 18.1178L25.9161 18.1076C25.9221 18.0978 25.9318 18.0823 25.9451 18.0616C25.9716 18.0202 26.0122 17.9584 26.0658 17.8814C26.1734 17.727 26.332 17.5137 26.5334 17.2817C26.9437 16.8091 27.4974 16.2992 28.1264 16.0232C28.4921 15.8628 28.8716 15.7864 29.2627 15.8307C29.4301 15.8497 29.6071 15.8917 29.7929 15.9644C28.978 16.5345 28.4601 17.2605 28.137 17.8946C27.922 18.3167 27.7906 18.7028 27.7125 18.9852C27.6733 19.1268 27.6472 19.2435 27.6306 19.3272C27.6223 19.369 27.6163 19.4027 27.6122 19.4272C27.6113 19.4328 27.6105 19.4379 27.6097 19.4426C27.6089 19.4481 27.6081 19.4529 27.6075 19.457L27.6061 19.4665L27.6056 19.4699L27.6053 19.4718ZM22.199 27.6678C22.1991 27.6682 22.1991 27.6685 22.77 27.6L22.1991 27.6685L22.8594 27.7046C22.5456 28.9516 22.2585 30.2387 22.0016 31.5657C20.6156 30.5203 18.8899 29.9 17.02 29.9C15.1795 29.9 13.4781 30.5011 12.1032 31.5173C11.7517 31.3022 11.4064 31.0872 11.0676 30.873C11.7545 26.7475 13.0262 22.1593 15.4913 17.8143C16.3594 18.4191 17.2864 19.0222 18.2699 19.6147C17.5457 19.6395 16.7779 19.5789 15.8384 19.4411L15.0263 19.322L15.1918 20.126C15.3325 20.8091 15.6861 22.0146 15.9959 23.0248C16.1524 23.5353 16.3004 24.0046 16.4093 24.3462C16.4637 24.517 16.5084 24.656 16.5395 24.7524L16.5882 24.903C16.5882 24.903 16.5883 24.9032 17.135 24.725L16.5882 24.903L16.8071 25.5747L17.4203 25.2243L17.135 24.725C17.4203 25.2243 17.4202 25.2243 17.4203 25.2243L17.4206 25.2241L17.423 25.2227L17.4292 25.2192L17.4516 25.2061C17.4583 25.2022 17.466 25.1977 17.4747 25.1926C17.4912 25.183 17.5113 25.1712 17.5347 25.1573C17.6061 25.1149 17.7087 25.0532 17.8353 24.9746C18.0882 24.8177 18.4386 24.5927 18.8298 24.3196C19.5245 23.8346 20.3777 23.1775 21.0382 22.4647C21.2255 22.4903 21.4867 22.5226 21.7975 22.5517C22.3844 22.6066 23.1594 22.6513 23.9531 22.6157C23.0965 23.7244 22.6468 24.7883 22.4157 25.655C22.26 26.2386 22.2044 26.7291 22.1884 27.0796C22.1804 27.2549 22.1823 27.3954 22.1865 27.4954C22.1887 27.5454 22.1914 27.5853 22.1938 27.6143C22.1947 27.6249 22.1955 27.6341 22.1963 27.6418C22.1965 27.6447 22.1968 27.6473 22.197 27.6498L22.1983 27.6613L22.1987 27.6654L22.199 27.6678ZM23.0038 32.457C23.3791 30.4145 23.8273 28.4671 24.3343 26.6157C24.7892 26.357 25.4656 26.1334 26.4664 26.1048C28.4275 26.0487 29.8283 25.7286 30.7624 25.1208C32.0635 25.5102 33.4097 25.8611 34.7992 26.1657L32.4153 40.168C29.9912 39.6089 27.6063 38.8707 25.2983 38.0113C25.2552 35.8579 24.3895 33.9055 23.0038 32.457ZM33.54 40.4137L35.9258 26.4005C39.5168 27.1102 43.3837 27.5066 47.4945 27.4605C47.4148 29.7629 47.0669 32.0713 46.3705 34.3306L46.4491 34.3549C45.9121 34.8804 45.3861 35.4464 44.8687 36.042C43.9775 37.0678 43.0991 38.1968 42.2239 39.3786L42.1245 39.2882C41.4687 40.0097 40.7738 40.667 40.0518 41.2653C37.8723 41.1551 35.6931 40.8579 33.54 40.4137ZM47.9091 33.0575C48.2649 31.5639 48.4842 30.0589 48.5888 28.5577C49.6336 29.6263 50.9657 30.4136 52.4605 30.7943C52.128 30.8774 51.7948 30.9713 51.4615 31.0768C50.2104 31.4727 49.0329 32.1631 47.9091 33.0575ZM58.3235 30.3178C58.2053 30.3095 58.0865 30.3021 57.9673 30.2957C58.0782 30.2447 58.1878 30.1913 58.296 30.1356C58.3017 30.1729 58.3073 30.2103 58.313 30.2477C58.3165 30.2711 58.32 30.2945 58.3235 30.3178ZM59.5028 30.4335C59.457 30.1158 59.4086 29.799 59.3576 29.4833C60.7421 28.4819 61.805 27.0623 62.3607 25.4083C63.4432 25.111 65.217 24.5528 66.3885 24.1815C67.2499 26.96 67.7508 29.9073 67.8367 32.9753C66.092 32.1198 63.0658 30.8793 59.5028 30.4335ZM66.0284 23.0893C65.0618 23.3955 63.7126 23.8203 62.6801 24.1219C62.7524 23.6817 62.79 23.2301 62.79 22.77C62.79 18.1971 59.0829 14.49 54.51 14.49L54.4979 14.49C54.2181 13.9832 53.932 13.4908 53.6407 13.0125C55.5872 12.8658 57.5836 12.6137 59.6216 12.2393C62.4174 15.3675 64.6115 19.0371 66.0284 23.0893ZM52.3391 13.0955C52.643 13.5772 52.9418 14.0745 53.2342 14.5877C50.9316 14.9439 48.9425 16.2486 47.6786 18.0899C47.2847 16.3561 46.7938 14.678 46.2457 13.0829C48.208 13.1933 50.2428 13.2048 52.3391 13.0955ZM44.9985 12.9989C45.7387 15.0894 46.383 17.3321 46.834 19.6597C46.4445 20.62 46.23 21.6699 46.23 22.77C46.23 24.0373 46.5151 25.2391 47.0247 26.3138C43.1556 26.3259 39.511 25.9387 36.1189 25.2664L38.3641 12.0786C40.4543 12.4968 42.6721 12.8162 44.9985 12.9989ZM44.5608 11.8085C42.4617 11.6234 40.4555 11.3254 38.5572 10.9445L39.993 2.51092C41.3516 4.71102 43.0948 7.96308 44.5608 11.8085ZM45.8256 11.9054C44.3444 7.90159 42.5488 4.49544 41.1231 2.15404C42.4646 2.82156 44.1398 3.92038 45.928 5.49421C47.7969 7.13904 49.774 9.28948 51.6062 11.978C49.6175 12.0573 47.6873 12.0265 45.8256 11.9054ZM58.687 11.2368C56.7291 11.5698 54.8118 11.7884 52.9429 11.9084C50.9489 8.86698 48.7595 6.4542 46.6878 4.63093C45.7111 3.77132 44.7565 3.03932 43.8572 2.4331C49.591 4.04896 54.6845 7.11976 58.687 11.2368ZM32.2109 9.26469C34.553 5.90728 36.9222 3.5259 38.8906 2.13458L37.4312 10.7061C36.459 10.4896 35.5172 10.252 34.6081 9.99746C33.781 9.7659 32.9814 9.52054 32.2109 9.26469ZM58.9351 31.5258C62.9055 31.9414 66.2521 33.4376 67.8483 34.2696C67.7939 39.6794 66.4626 45.2774 64.1535 49.7754C63.4556 49.7337 62.793 49.678 62.1542 49.6233L62.0372 49.6132C61.3326 49.5528 60.6525 49.4944 59.9988 49.4615C58.6177 49.3919 57.308 49.4323 56.0104 49.8189C53.3884 50.6002 50.9922 52.7387 48.0369 57.6642C43.7279 64.846 37.3306 67.1609 34.4334 67.8499C23.5526 67.8287 13.8943 62.597 7.82133 54.5151C9.12502 55.3187 10.7197 56.1013 12.5304 56.7241C16.0966 57.9507 20.5427 58.5719 25.3127 57.4856C28.3595 56.7918 30.9877 54.9821 33.3431 52.6707C35.697 50.3606 37.8141 47.513 39.8266 44.6955C40.1544 44.2366 40.4791 43.7789 40.8017 43.3243C42.4713 40.9711 44.0818 38.7013 45.7369 36.7962C47.7153 34.5189 49.6919 32.843 51.8085 32.1732C54.2417 31.4032 56.6828 31.29 58.9351 31.5258ZM62.056 50.7691C62.5337 50.81 63.032 50.8521 63.5522 50.8887C58.4748 59.87 49.3542 66.2613 38.6635 67.5927C41.9207 66.1062 45.9723 63.3404 49.0231 58.2558C51.9328 53.4063 54.1366 51.5773 56.3388 50.9211C57.4533 50.589 58.6117 50.5431 59.941 50.6101C60.5738 50.6419 61.2349 50.6986 61.9459 50.7596L62.056 50.7691ZM12.9044 55.6366C9.52812 54.4754 6.99884 52.7535 5.81118 51.5155C2.85042 46.5344 1.15 40.7167 1.15 34.5C1.15 32.4688 1.33152 30.4804 1.67914 28.55C2.64541 34.7864 6.01616 40.176 10.8507 43.7027C12.0486 45.04 13.6763 45.9864 15.5181 46.324C18.2343 47.4505 21.2244 48.07 24.38 48.07C26.1918 48.07 29.0333 47.742 32.1435 46.758C34.5554 45.9948 37.1447 44.832 39.5446 43.1085C39.3271 43.4148 39.1093 43.7213 38.8909 44.027C36.8784 46.8445 34.8123 49.6175 32.5376 51.8499C30.2641 54.081 27.818 55.7357 25.0573 56.3643C20.5353 57.3941 16.3097 56.8078 12.9044 55.6366ZM9.15004 40.7601C5.34281 37.034 2.90315 31.8974 2.58144 26.1438C4.31855 27.6201 6.79838 29.4919 9.81335 31.4365C9.62536 32.672 9.4875 33.8583 9.38293 34.9758C8.96866 35.9621 8.74 37.0451 8.74 38.18C8.74 39.0807 8.88395 39.948 9.15004 40.7601ZM14.5509 17.1418C12.0602 21.4954 10.7428 26.0732 10.0166 30.1973C6.79648 28.0928 4.24166 26.1021 2.62592 24.6579C4.01477 20.1548 6.332 16.0582 9.35466 12.5918C10.6517 13.9918 12.3974 15.5614 14.5509 17.1418ZM15.142 16.1491C13.0448 14.6019 11.3608 13.0762 10.1285 11.7347C12.9635 8.70098 16.3579 6.19723 20.147 4.38787C21.0576 5.15197 22.3156 6.01372 23.8781 6.89113C20.3121 9.40575 17.6149 12.3506 15.5729 15.4723C15.4259 15.6971 15.2823 15.9227 15.142 16.1491ZM20.1128 19.3583C18.6481 18.5316 17.3011 17.6769 16.0783 16.8216C16.2267 16.5807 16.379 16.3407 16.5353 16.1018C16.6519 15.9236 16.7707 15.7459 16.8918 15.5688L17.2421 16.3183C17.2423 16.3199 17.2423 16.3199 17.2423 16.3199L17.2418 16.32L17.2409 16.3202L17.2396 16.3204L17.2393 16.3205C17.2399 16.3204 17.2407 16.3202 17.2418 16.32C17.2466 16.3193 17.2562 16.3179 17.2701 16.3162C17.298 16.3127 17.3426 16.3083 17.3997 16.3061C17.5153 16.3015 17.6741 16.3063 17.847 16.3418C18.1836 16.411 18.5605 16.5903 18.8132 17.0617C19.1909 17.7662 19.5819 18.2843 20.0956 18.7214C20.2951 18.8912 20.509 19.0452 20.7411 19.1916C20.5241 19.2546 20.3156 19.31 20.1128 19.3583ZM10.7924 32.7232C10.8191 32.5206 10.8471 32.3165 10.8764 32.111C10.9793 32.1752 11.0827 32.2394 11.1867 32.3037C11.0505 32.4389 10.919 32.5788 10.7924 32.7232ZM20.6927 46.6168C20.0894 46.5162 19.4953 46.3912 18.9114 46.2429C19.5334 46.0975 20.1287 45.8819 20.6881 45.6051C20.6876 45.9403 20.6891 46.2775 20.6927 46.6168ZM21.8446 46.7779C21.8367 46.1487 21.836 45.5266 21.8422 44.9116C23.6707 43.5996 24.9437 41.5594 25.236 39.2142C27.4982 40.0424 29.8383 40.757 32.222 41.3035L31.4625 45.765C28.5966 46.6329 26.0106 46.92 24.38 46.92C23.5207 46.92 22.6748 46.8718 21.8446 46.7779ZM32.6981 45.3594L33.3469 41.5481C35.1028 41.9088 36.8791 42.1747 38.6624 42.3242C36.7352 43.6744 34.6795 44.6573 32.6981 45.3594ZM54.1866 15.6472C54.2938 15.6424 54.4016 15.64 54.51 15.64C58.4478 15.64 61.64 18.8322 61.64 22.77C61.64 23.4663 61.5404 24.1383 61.3549 24.7731C60.8747 26.4171 59.8172 27.8167 58.4155 28.7363C57.294 29.472 55.9529 29.9 54.51 29.9C52.026 29.9 49.8384 28.6302 48.561 26.7017C48.5323 26.6584 48.5041 26.6147 48.4763 26.5707C47.7819 25.4709 47.38 24.1683 47.38 22.77C47.38 18.9406 50.3992 15.816 54.1866 15.6472ZM12.5071 32.6597C13.7365 31.6534 15.307 31.05 17.02 31.05C18.95 31.05 20.6998 31.816 21.9841 33.0619C23.3206 34.3584 24.15 36.1719 24.15 38.18C24.15 38.2509 24.149 38.3216 24.1469 38.392C24.0771 40.7872 22.8259 42.887 20.9531 44.1281C19.826 44.875 18.4747 45.31 17.02 45.31C16.5968 45.31 16.1826 45.2732 15.7805 45.2027C14.1555 44.918 12.7187 44.0825 11.6705 42.8939C10.5619 41.6369 9.89 39.9876 9.89 38.18C9.89 37.1723 10.0987 36.2148 10.4747 35.3473C10.9302 34.2965 11.6317 33.3762 12.5071 32.6597ZM33.3197 15.4515C33.0359 15.5039 32.7378 15.5864 32.4658 15.6864L32.4869 15.6896C32.8497 15.744 33.1952 15.7902 33.4965 15.7985C33.8074 15.8071 34.0175 15.7726 34.1396 15.7083C34.1935 15.6799 34.2234 15.6493 34.2422 15.6171C34.2603 15.5861 34.2791 15.5348 34.2816 15.4479C34.2621 15.4374 34.2226 15.4212 34.1528 15.4086C33.9612 15.3739 33.6665 15.3874 33.3197 15.4515ZM32.6287 13.3671C33.1413 12.9482 33.9338 12.6919 34.7401 13.0552C34.6866 13.0989 34.5987 13.1555 34.4621 13.2128C34.0805 13.3727 33.4469 13.4804 32.6287 13.3671Z" fill="#1051D3"/>
</svg>
